<?xml version="1.0" encoding="UTF-8"?>
<svg id="Layer_1" xmlns="http://www.w3.org/2000/svg" version="1.1" viewBox="0 0 2000 2000">
  <!-- Generator: Adobe Illustrator 29.7.1, SVG Export Plug-In . SVG Version: 2.1.1 Build 8)  -->
  <rect width="2000" height="2000" fill="#fff"/>
  <g>
    <path d="M966.096,1034.65c-22.754-27.625-69.346-55.886-102.216-68.144-36.946-13.778-60.656-17.137-96.231-34.679-27.058-13.343-56.439-31.135-62.232-62.543-8.394-45.509,26.465-76.087,65.207-83.711,50.611-9.96,102.216,17.623,118.663,67.993.387,1.184,3.827,12.194,4.26,12.194.003,0,91.153-.661,91.201-.661-.847-6.944-6.841-31.044-13.658-46.482-22.403-50.737-58.306-89.826-111.718-106.701-46.474-14.683-98.465-12.364-143.461,6.356-23.651,9.84-45.367,24.363-62.924,43.069-31.058,33.092-40.048,80.048-36.128,124.686,9.693,110.373,123.031,127.96,200.026,155.673,16.723,6.019,33.389,11.877,48.507,21.439,36.014,22.778,56.2,62.211,37.847,103.687-21.695,49.03-82.751,55.489-128.876,39.17-8.601-3.043-16.857-7.076-24.448-12.148-16.955-11.328-30.141-22.695-36.876-41.77h92.236c6.203,12.813,19.328,21.65,34.519,21.65,21.17,0,38.331-17.161,38.331-38.331s-17.161-38.331-38.331-38.331c-15.19,0-28.315,8.837-34.519,21.65h-100.551c-2.16-7.913-5.078-15.541-10.103-22.31-15.861-21.368-42.296-18.945-58.378-9.252-33.302,20.073-16.845,74.125-11.455,91.421,28.402,91.137,131.539,129.795,220.24,116.529,79.203-11.846,152.177-72.27,155.139-155.888,1.372-38.733-9.367-74.572-34.072-104.565Z" fill="#0092ce"/>
    <g>
      <path d="M1270.084,991.072c19.65-7.266,37.281-18.7,51.813-33.232,26.037-26.049,42.149-62.024,42.149-101.763,0-79.477-64.434-143.911-143.911-143.911h-219.85v290.969l84.879-84.879v-122.884h108.376c42.944,0,77.756,34.811,77.756,77.756,0,21.478-8.703,40.914-22.772,54.983-14.069,14.069-33.517,22.772-54.983,22.772h-87.266l-102.57,102.57c12.965,25.907,18.937,54.865,17.821,86.518-.962,26.999-8.18,52.609-21.241,75.879v71.974h233.16c41.591,0,79.24-16.86,106.5-44.12,27.248-27.248,44.108-64.909,44.108-106.5,0-70.549-48.489-129.759-113.968-146.131ZM1293.117,1119.525c0,45.2-36.64,81.84-81.852,81.84h-126.102v-165.389h126.102c45.212,0,81.852,36.64,81.852,81.84v1.71Z" fill="#01477e"/>
      <path d="M1134.578,922.583c11.564,2.648,24.185-.546,33.197-9.558,13.939-13.951,13.939-36.557,0-50.507-13.951-13.939-36.557-13.939-50.507,0-9.012,9.011-12.205,21.632-9.558,33.197,1.425,6.352,4.619,12.372,9.558,17.311,4.939,4.939,10.971,8.133,17.311,9.558Z" fill="#0092ce"/>
    </g>
  </g>
</svg>